<?xml version="1.0" encoding="utf-8"?>
<!-- Generator: Adobe Illustrator 19.1.0, SVG Export Plug-In . SVG Version: 6.00 Build 0)  -->
<svg version="1.1" id="Layer_1" xmlns="http://www.w3.org/2000/svg" xmlns:xlink="http://www.w3.org/1999/xlink" x="0px" y="0px"
	 viewBox="0 0 30 30" style="enable-background:new 0 0 30 30;" xml:space="preserve">
<style type="text/css">
	.st0{clip-path:url(#SVGID_2_);fill:#FFFFFF;}
	.st1{clip-path:url(#SVGID_2_);fill:#36B0C0;}
	.st2{fill:#FFFFFF;}
	.st3{clip-path:url(#SVGID_4_);fill:#FFFFFF;}
</style>
<g>
	<defs>
		<rect id="SVGID_1_" x="0" y="0" width="30" height="30"/>
	</defs>
	<clipPath id="SVGID_2_">
		<use xlink:href="#SVGID_1_"  style="overflow:visible;"/>
	</clipPath>
	<path class="st0" d="M30,15c0,8.3-6.7,15-15,15C6.7,30,0,23.3,0,15S6.7,0,15,0C23.3,0,30,6.7,30,15"/>
	<path class="st1" d="M30,15c0,8.3-6.7,15-15,15C6.7,30,0,23.3,0,15S6.7,0,15,0C23.3,0,30,6.7,30,15"/>
	<path class="st0" d="M8.1,7.2l16.6,2.7c0,0-7.3,5.3-8.5,6.1c-1.1,0.8-1.4,0.7-2.2-0.4C13.2,14.6,8.1,7.2,8.1,7.2"/>
</g>
<polygon class="st2" points="7.4,7.8 12.2,14.4 5.6,19.1 "/>
<g>
	<defs>
		<rect id="SVGID_3_" x="0" y="0" width="30" height="30"/>
	</defs>
	<clipPath id="SVGID_4_">
		<use xlink:href="#SVGID_3_"  style="overflow:visible;"/>
	</clipPath>
	<path class="st3" d="M6.1,19.8l6.5-4.8c0,0,0.5,0.7,1,1.2c1,1.2,1.5,1.4,3,0.5c0.7-0.4,1.3-0.9,1.3-0.9l4.8,6.6L6.1,19.8z"/>
</g>
<polygon class="st2" points="23.4,22 18.6,15.4 25.3,10.7 "/>
</svg>
