<?xml version="1.0" encoding="utf-8"?>
<!-- Generator: Adobe Illustrator 19.1.0, SVG Export Plug-In . SVG Version: 6.00 Build 0)  -->
<svg version="1.1" id="Layer_1" xmlns="http://www.w3.org/2000/svg" xmlns:xlink="http://www.w3.org/1999/xlink" x="0px" y="0px"
	 viewBox="0 0 30 30" style="enable-background:new 0 0 30 30;" xml:space="preserve">
<style type="text/css">
	.st0{fill:#FFFFFF;}
	.st1{clip-path:url(#SVGID_2_);fill:#FFFFFF;}
	.st2{clip-path:url(#SVGID_4_);fill:#FFFFFF;}
	.st3{clip-path:url(#SVGID_4_);fill:#36B0C0;}
</style>
<polygon class="st0" points="7.4,7.8 12.2,14.4 5.6,19.1 "/>
<g>
	<defs>
		<rect id="SVGID_1_" x="0" y="0" width="30" height="30"/>
	</defs>
	<clipPath id="SVGID_2_">
		<use xlink:href="#SVGID_1_"  style="overflow:visible;"/>
	</clipPath>
	<path class="st1" d="M6.1,19.8l6.5-4.8c0,0,0.5,0.7,1,1.2c1,1.2,1.5,1.4,3,0.5c0.7-0.4,1.3-0.9,1.3-0.9l4.8,6.6L6.1,19.8z"/>
</g>
<polygon class="st0" points="23.4,22 18.6,15.4 25.3,10.7 "/>
<g>
	<defs>
		<rect id="SVGID_3_" x="0" y="0" width="30" height="30"/>
	</defs>
	<clipPath id="SVGID_4_">
		<use xlink:href="#SVGID_3_"  style="overflow:visible;"/>
	</clipPath>
	<path class="st2" d="M30,15c0,8.3-6.7,15-15,15C6.7,30,0,23.3,0,15C0,6.7,6.7,0,15,0C23.3,0,30,6.7,30,15"/>
	<path class="st3" d="M30,15c0,8.3-6.7,15-15,15C6.7,30,0,23.3,0,15C0,6.7,6.7,0,15,0C23.3,0,30,6.7,30,15"/>
	<path class="st2" d="M20,11.2c-2.5,0-3.1,1.5-3.5,2v-1.7h-3.6v11h3.6v-7c0.1-0.2,0.2-0.5,0.4-0.7c0.4-0.5,1-0.8,1.6-0.8
		c0.8,0,1.2,0.4,1.5,0.8c0.3,0.5,0.3,0.7,0.3,1.2v6.4H24V16C24,13.4,22.7,11.2,20,11.2 M10.9,11.4H7.2v11h3.7V11.4z M11.1,8
		c0,1.1-0.9,1.9-2,1.9S7,9.1,7,8s0.9-1.9,2-1.9S11.1,7,11.1,8"/>
</g>
</svg>
